max v2;#N vpatcher 182 53 937 769;#P window setfont "Sans Serif" 9.;#P window linecount 1;#P newex 111 123 54 196617 jit.change;#P user jit.pwindow 517 146 162 122 0 1 0 0 1 0;#P newex 74 178 129 196617 jit.matrix 1 char 160 120;#P bpatcher 52 41 255 60 0 0 jmod.input%.mxt 0 /input%;#P objectname /input%[1];#P bpatcher 385 40 255 60 0 0 jmod.motion%.mxt 0 /motion%;#P objectname /motion%;#P comment 351 303 69 196617 Down: Yellow;#P comment 274 303 59 196617 Up: Blue;#P comment 179 302 54 196617 Right: Red;#P comment 88 302 59 196617 Left: Green;#N vpatcher 515 124 1201 748;#P window setfont "Sans Serif" 9.;#P newex 160 437 41 196617 * 100.;#P user multiSlider 160 464 206 88 -1. 1. 1 3961 15 0 0 2 0 0 0;#M frgb 0 0 0;#M brgb 255 255 255;#M rgb2 127 127 127;#M rgb3 0 0 0;#M rgb4 37 52 91;#M rgb5 74 105 182;#M rgb6 112 158 18;#M rgb7 149 211 110;#M rgb8 187 9 201;#M rgb9 224 62 37;#M rgb10 7 114 128;#P newex 149 284 27 196617 - 0.;#P newex 321 292 55 196617 slide 3. 3.;#P newex 321 332 41 196617 * 100.;#P user multiSlider 321 359 206 88 -1. 1. 1 3961 15 0 0 2 0 0 0;#M frgb 0 0 0;#M brgb 255 255 255;#M rgb2 127 127 127;#M rgb3 0 0 0;#M rgb4 37 52 91;#M rgb5 74 105 182;#M rgb6 112 158 18;#M rgb7 149 211 110;#M rgb8 187 9 201;#M rgb9 224 62 37;#M rgb10 7 114 128;#P newex 86 275 55 196617 slide 3. 3.;#P newex 86 315 41 196617 * 100.;#P user multiSlider 86 342 206 88 -1. 1. 1 3961 15 0 0 2 0 0 0;#M frgb 0 0 0;#M brgb 255 255 255;#M rgb2 127 127 127;#M rgb3 0 0 0;#M rgb4 37 52 91;#M rgb5 74 105 182;#M rgb6 112 158 18;#M rgb7 149 211 110;#M rgb8 187 9 201;#M rgb9 224 62 37;#M rgb10 7 114 128;#P newex 166 250 62 196617 jcom.sum%;#P newex 86 251 62 196617 jcom.sum%;#P newex 385 197 71 196617 jit.op @op abs;#P newex 141 198 71 196617 jit.op @op abs;#P newex 280 150 124 196617 jit.clip @min -1. @max 1.;#P newex 280 124 105 196617 jit.op @op * @val 0.3;#P newex 35 150 124 196617 jit.clip @min -1. @max 1.;#P newex 35 124 105 196617 jit.op @op * @val 0.3;#P newex 478 154 32 196617 * -1.;#N comlet (matrix) Vertical flow;#P outlet 266 278 15 0;#N comlet (matrix) Horizontal flow;#P outlet 21 289 15 0;#N comlet (float) threshold;#P inlet 375 24 15 0;#N comlet (matrix) Vertical flow;#P inlet 280 24 15 0;#N comlet (matrix) Horizontal flow;#P inlet 35 24 15 0;#P newex 234 154 32 196617 * -1.;#P flonum 375 56 35 9 0. 1. 3 3 0 0 0 221 221 221 222 222 222 0 0 0;#P flonum 130 56 35 9 0. 1. 3 3 0 0 0 221 221 221 222 222 222 0 0 0;#P newex 266 226 53 196617 jit.pack;#P newex 385 177 103 196617 jit.op @op <p @val 0.;#P newex 280 177 103 196617 jit.op @op >p @val 0.;#P newex 266 204 20 196617 t b;#P newex 21 237 53 196617 jit.pack;#P newex 141 177 103 196617 jit.op @op <p @val 0.;#P newex 35 177 103 196617 jit.op @op >p @val 0.;#P newex 21 215 20 196617 t b;#P fasten 1 0 0 0 40 197 26 197;#P connect 0 0 3 0;#P connect 3 0 14 0;#P connect 11 0 17 0;#P connect 17 0 18 0;#P connect 18 0 1 0;#P connect 1 0 3 1;#P fasten 21 0 3 2 146 223 54 223;#P connect 1 0 23 0;#P connect 23 0 27 0;#P connect 27 0 26 0;#P connect 26 0 25 0;#P fasten 13 0 8 0 380 44 135 44;#P connect 8 0 17 1;#P fasten 18 0 2 0 40 172 146 172;#P connect 2 0 21 0;#P connect 23 0 31 0;#P connect 31 0 33 0;#P connect 33 0 32 0;#P connect 21 0 24 0;#P connect 24 0 31 1;#P connect 10 0 2 1;#P fasten 5 0 4 0 285 197 271 197;#P connect 4 0 7 0;#P connect 7 0 15 0;#P connect 12 0 19 0;#P connect 19 0 20 0;#P connect 20 0 5 0;#P connect 5 0 7 1;#P fasten 5 0 7 2 285 211 299 211;#P fasten 22 0 7 3 390 219 313 219;#P connect 24 0 30 0;#P connect 30 0 29 0;#P connect 29 0 28 0;#P connect 13 0 9 0;#P connect 9 0 19 1;#P fasten 20 0 6 0 285 171 390 171;#P connect 6 0 22 0;#P connect 16 0 6 1;#P pop 1;#P newobj 74 253 61 196617 p visualizer;#P user jit.pwindow 258 317 162 122 0 1 0 0 1 0;#P user jit.pwindow 73 318 162 122 0 1 0 0 1 0;#P newex 74 231 61 196617 jit.unpack 2;#P comment 327 285 93 196617 Vertical movement;#B frgb 255 255 255;#P comment 131 285 103 196617 Horizontal movement;#B frgb 255 255 255;#P user panel 65 280 179 167;#X brgb 140 140 140;#X frgb 0 0 0;#X border 0;#X rounded 0;#X shadow 0;#X done;#P user panel 249 280 179 167;#X brgb 140 140 140;#X frgb 0 0 0;#X border 0;#X rounded 0;#X shadow 0;#X done;#P newex 74 208 68 196617 cv.jit.HSflow;#P newex 77 155 64 196617 jit.rgb2luma;#P window linecount 3;#P user com 200 207 292 196617 82;#K set 0 21608 25888 30305 27765 25971 8303 26144 29800 25888 28533 29808 30068 8301 24948 29289 30752 24946 25888 25971 29801 28001 29801 28526 29472 28518 8308 26721 29728 28777 30821 27687 29472 25705 29552 27745 25445 28005 28276 8291 28525 28769 29285 25632 29807 8308 26725 8304 29285 30313 28533 29472 26226 24941 25902 8270 25959 24948 26998 25888 30305 27765 25971 8297 28260 26979 24948 25888 27749 26228 30561 29284 8289 28260 8309 28791 24946 25632 28015 30309 28005 28276 29486;#K end;#P user panel 190 201 308 54;#X brgb 210 210 195;#X frgb 140 140 140;#X border 1;#X rounded 0;#X shadow 0;#X done;#P connect 2 0 18 0;#P connect 18 0 3 0;#P connect 3 0 8 0;#P connect 8 0 11 0;#P fasten 11 0 9 0 79 307 79 307;#P connect 20 0 2 0;#P connect 8 1 11 1;#P connect 17 1 20 0;#P fasten 11 1 10 0 130 275 264 275;#P connect 17 1 19 0;#P pop;