max v2;
#N vpatcher 11 25 1018 677;
#P origin 43 -28;
#P window setfont "Sans Serif" 9.;
#P comment 20 101 94 9109513 manuell cropping på;
#P hidden newex 119 98 42 9109513 gate 1 0;
#P toggle 5 100 15 0;
#P hidden message 1111 345 30 9109513 close;
#P hidden message 1064 506 37 9109513 close;
#P hidden message 1082 345 28 9109513 open;
#P hidden newex 1082 322 40 9109513 sel 1 0;
#P hidden newex 1082 367 41 9109513 pcontrol;
#P window setfont "Sans Serif" 14.;
#P comment 485 396 124 9109518 Quantity of Motion;
#P user led 521 457 17 17 0 150;
#P window setfont "Sans Serif" 9.;
#P hidden newex 626 385 28 9109513 sel 1;
#P toggle 539 433 15 0;
#P hidden message 626 406 33 9109513 clear;
#P message 627 433 29 9109513 write;
#N vpatcher 43 192 280 511;
#P window setfont "Sans Serif" 9.;
#P newex 70 142 50 9109513 route time;
#P newex 70 116 63 9109513 r from-movie;
#P inlet 29 23 15 0;
#P inlet 145 23 15 0;
#P newex 29 111 29 9109513 gate;
#P newex 29 220 53 9109513 append cr;
#P newex 29 251 40 9109513 text;
#P newex 29 154 27 9109513 t b f;
#P newex 29 198 38 9109513 zl join;
#P newex 29 175 51 9109513 i;
#P inlet 48 23 15 0;
#P connect 8 0 6 0;
#P connect 6 0 3 0;
#P connect 3 0 1 0;
#P connect 1 0 2 0;
#P connect 2 0 5 0;
#P connect 5 0 4 0;
#P fasten 7 0 4 0 150 244 34 244;
#P connect 0 0 6 1;
#P connect 3 1 2 1;
#P connect 9 0 10 0;
#P fasten 10 0 1 1 75 168 75 168;
#P pop;
#P newobj 539 456 99 9109513 p store-text;
#P comment 477 433 63 9109513 start skriving:;
#P window setfont "Sans Serif" 14.;
#P comment 681 396 101 9109518 X og Y:;
#P window setfont "Sans Serif" 9.;
#N vpatcher 25 70 625 470;
#P window setfont "Sans Serif" 9.;
#P hidden newex 50 50 42 9109513 gate 1 0;
#P hidden inlet 72 29 15 0;
#P hidden inlet 54 29 15 0;
#P hidden outlet 50 74 15 0;
#P hidden connect 2 0 3 0;
#P hidden connect 3 0 0 0;
#P hidden connect 1 0 3 1;
#P pop;
#P hidden newobj 974 528 44 9109513 p gates1;
#P comment 787 71 19 9109513 Vis;
#P comment 786 184 19 9109513 Vis;
#N vpatcher 25 70 625 470;
#P window setfont "Sans Serif" 9.;
#P window linecount 1;
#P newex 49 50 42 9109513 gate 1 0;
#P inlet 76 27 15 0;
#P inlet 49 27 15 0;
#P outlet 49 74 15 0;
#P window linecount 0;
#P comment 109 45 100 9109513 for layoutens skyld;
#P connect 3 0 4 0;
#P connect 4 0 1 0;
#P connect 2 0 4 1;
#P pop;
#P hidden newobj 748 96 44 9109513 p gates1;
#N vpatcher 203 337 803 737;
#P window setfont "Sans Serif" 9.;
#P hidden newex 62 98 42 9109513 gate 1 0;
#P hidden newex 46 125 42 9109513 gate 1 0;
#P inlet 29 30 15 0;
#P inlet 94 30 15 0;
#P inlet 122 30 15 0;
#P outlet 46 192 15 0;
#P outlet 62 192 15 0;
#P fasten 2 0 5 0 127 49 142 49 142 25 51 25;
#P connect 5 0 1 0;
#P fasten 2 0 6 0 127 49 142 49 142 25 67 25;
#P connect 6 0 0 0;
#P fasten 4 0 5 1 34 226 100 226 100 121 83 121;
#P connect 3 0 6 1;
#P pop;
#P hidden newobj 771 217 44 9109513 p gates2;
#P toggle 805 71 15 0;
#P hidden newex 200 0 43 9109513 s tostart;
#P comment 214 21 62 9109513 gå til start;
#P button 200 21 15 0;
#P hidden message 1035 506 28 9109513 open;
#P hidden newex 1035 483 40 9109513 sel 1 0;
#P hidden newex 1035 528 41 9109513 pcontrol;
#P comment 481 351 299 9109513 - Bruk "write" for å exsportere dataene til en txt-fil når filmen er ferdig;
#P user led 717 457 17 17 0 150;
#P comment 481 337 233 9109513 - Du bør starte skrivingen før du starter videoen;
#P hidden newex 822 385 28 9109513 sel 1;
#P toggle 735 433 15 0;
#P hidden message 822 406 33 9109513 clear;
#P message 822 433 29 9109513 write;
#N vpatcher 43 192 280 511;
#P window setfont "Sans Serif" 9.;
#P newex 48 57 52 9109513 pack 0. 0.;
#P newex 70 142 50 9109513 route time;
#P newex 70 116 63 9109513 r from-movie;
#P inlet 29 23 15 0;
#P inlet 145 23 15 0;
#P newex 29 111 29 9109513 gate;
#P newex 29 220 53 9109513 append cr;
#P newex 29 251 40 9109513 text;
#P newex 29 154 27 9109513 t b l;
#P newex 29 198 38 9109513 zl join;
#P newex 29 175 51 9109513 i;
#P inlet 48 23 15 0;
#P inlet 90 23 15 0;
#P connect 9 0 7 0;
#P connect 7 0 4 0;
#P connect 4 0 2 0;
#P connect 2 0 3 0;
#P connect 3 0 6 0;
#P fasten 8 0 5 0 150 244 34 244;
#P connect 6 0 5 0;
#P connect 1 0 12 0;
#P connect 12 0 7 1;
#P connect 4 1 3 1;
#P connect 10 0 11 0;
#P fasten 11 0 2 1 75 168 75 168;
#P connect 0 0 12 1;
#P pop;
#P newobj 735 456 99 9109513 p store-text;
#P comment 673 433 63 9109513 start skriving:;
#P toggle 1008 444 15 0;
#P toggle 1008 419 15 0;
#P hidden newex 1007 367 42 9109513 gate 1 0;
#P hidden message 288 30 29 9109513 set 1;
#P hidden newex 288 8 45 9109513 loadbang;
#P hidden newex 200 68 58 9109513 s filmtempo;
#P flonum 200 50 35 9 0 0 0 139 0 0 0 221 221 221 222 222 222 0 0 0;
#P user ubumenu 121 50 70 9109513 0 1 1 0;
#X add klokke bort;
#X add test2;
#X add test3;
#X add test4;
#X prefix_set 0 0 <none> 0;
#N vpatcher 341 387 936 852;
#P window setfont "Sans Serif" 9.;
#P window linecount 0;
#N vpatcher 216 465 816 865;
#P window setfont "Sans Serif" 9.;
#P window linecount 3;
#P comment 306 80 129 9109513 klokken croppes bort ved y=18 \, venstre kant ligger ved x=-18;
#P window linecount 2;
#P comment 306 44 129 9109513 forandre x og y verdiene for å få ulik cropping.;
#P window linecount 0;
#P comment 224 51 42 9109513 x-verdier;
#P newex 94 124 44 9109513 pack 0 0;
#P newex 161 77 56 9109513 line;
#P message 161 50 57 9109513 20 \, 230 500;
#P message 94 50 57 9109513 18 \, 100 500;
#P message 171 103 14 9109513 0;
#P newex 171 126 44 9109513 pack 0 0;
#P message 171 149 75 9109513 mouse \$2 \$2 \$1;
#P newex 94 77 56 9109513 line;
#P message 94 149 70 9109513 mouse \$2 \$1 1;
#P comment 50 51 42 9109513 y-verdier;
#P inlet 94 30 15 0;
#P outlet 94 171 15 0;
#P connect 1 0 8 0;
#P connect 8 0 4 0;
#P connect 4 0 11 0;
#P connect 11 0 3 0;
#P connect 3 0 0 0;
#P fasten 5 0 0 0 176 168 99 168;
#P connect 10 0 11 1;
#P lcolor 1;
#P fasten 1 0 9 0 99 47 166 47;
#P connect 9 0 10 0;
#P fasten 4 1 7 0 145 99 176 99;
#P connect 7 0 6 0;
#P connect 6 0 5 0;
#P fasten 4 0 6 1 99 121 210 121;
#P lcolor 1;
#P pop;
#P newobj 250 207 63 9109513 p crop-preset;
#N vpatcher 216 465 816 865;
#P window setfont "Sans Serif" 9.;
#P window linecount 3;
#P comment 306 80 129 9109513 klokken croppes bort ved y=18 \, venstre kant ligger ved x=-18;
#P window linecount 2;
#P comment 306 44 129 9109513 forandre x og y verdiene for å få ulik cropping.;
#P window linecount 0;
#P comment 224 51 42 9109513 x-verdier;
#P newex 94 124 44 9109513 pack 0 0;
#P newex 161 77 56 9109513 line;
#P message 161 50 52 9109513 0 \, 200 500;
#P message 94 50 57 9109513 50 \, 200 500;
#P message 171 103 14 9109513 0;
#P newex 171 126 44 9109513 pack 0 0;
#P message 171 149 75 9109513 mouse \$2 \$2 \$1;
#P newex 94 77 56 9109513 line;
#P message 94 149 70 9109513 mouse \$2 \$1 1;
#P comment 50 51 42 9109513 y-verdier;
#P inlet 94 30 15 0;
#P outlet 94 171 15 0;
#P connect 1 0 8 0;
#P connect 8 0 4 0;
#P connect 4 0 11 0;
#P connect 11 0 3 0;
#P fasten 5 0 0 0 176 168 99 168;
#P connect 3 0 0 0;
#P connect 10 0 11 1;
#P lcolor 1;
#P fasten 1 0 9 0 99 47 166 47;
#P connect 9 0 10 0;
#P fasten 4 1 7 0 145 99 176 99;
#P connect 7 0 6 0;
#P connect 6 0 5 0;
#P fasten 4 0 6 1 99 121 210 121;
#P lcolor 1;
#P pop;
#P newobj 186 207 63 9109513 p crop-preset;
#N vpatcher 216 465 816 865;
#P window setfont "Sans Serif" 9.;
#P window linecount 3;
#P comment 306 80 129 9109513 klokken croppes bort ved y=18 \, venstre kant ligger ved x=-18;
#P window linecount 2;
#P comment 306 44 129 9109513 forandre x og y verdiene for å få ulik cropping.;
#P window linecount 1;
#P comment 224 51 42 9109513 x-verdier;
#P newex 94 124 44 9109513 pack 0 0;
#P newex 161 77 56 9109513 line;
#P message 161 50 57 9109513 50 \, 320 500;
#P message 94 50 57 9109513 18 \, 240 500;
#P message 171 103 14 9109513 0;
#P newex 171 126 44 9109513 pack 0 0;
#P message 171 149 75 9109513 mouse \$2 \$2 \$1;
#P newex 94 77 56 9109513 line;
#P message 94 149 70 9109513 mouse \$2 \$1 1;
#P comment 50 51 42 9109513 y-verdier;
#P inlet 94 30 15 0;
#P outlet 94 171 15 0;
#P connect 1 0 8 0;
#P connect 8 0 4 0;
#P connect 4 0 11 0;
#P connect 11 0 3 0;
#P connect 3 0 0 0;
#P fasten 5 0 0 0 176 168 99 168;
#P connect 10 0 11 1;
#P lcolor 1;
#P fasten 1 0 9 0 99 47 166 47;
#P connect 9 0 10 0;
#P fasten 4 1 7 0 145 99 176 99;
#P connect 7 0 6 0;
#P connect 6 0 5 0;
#P fasten 4 0 6 1 99 121 210 121;
#P lcolor 1;
#P pop;
#P newobj 122 207 63 9109513 p crop-preset;
#N vpatcher 216 465 816 865;
#P window setfont "Sans Serif" 9.;
#P window linecount 2;
#P comment 299 73 129 9109513 klokken croppes bort ved y=18 \, venstre kant ligger ved x=-18;
#P comment 299 37 129 9109513 forandre x og y verdiene for å få ulik cropping.;
#P window linecount 1;
#P comment 224 51 42 9109513 x-verdier;
#P newex 94 124 44 9109513 pack 0 0;
#P newex 161 77 56 9109513 line;
#P message 161 50 60 9109513 -18 \, 320 500;
#P message 94 50 57 9109513 18 \, 240 500;
#P message 171 103 14 9109513 0;
#P newex 171 126 44 9109513 pack 0 0;
#P message 171 149 75 9109513 mouse \$2 \$2 \$1;
#P newex 94 77 56 9109513 line;
#P message 94 149 70 9109513 mouse \$2 \$1 1;
#P comment 50 51 42 9109513 y-verdier;
#P inlet 94 30 15 0;
#P outlet 94 171 15 0;
#P connect 1 0 8 0;
#P connect 8 0 4 0;
#P connect 4 0 11 0;
#P connect 11 0 3 0;
#P fasten 5 0 0 0 176 168 99 168;
#P connect 3 0 0 0;
#P connect 10 0 11 1;
#P lcolor 1;
#P fasten 1 0 9 0 99 47 166 47;
#P connect 9 0 10 0;
#P fasten 4 1 7 0 145 99 176 99;
#P connect 7 0 6 0;
#P connect 6 0 5 0;
#P fasten 4 0 6 1 99 121 210 121;
#P lcolor 1;
#P pop;
#P newobj 58 207 63 9109513 p crop-preset;
#P newex 58 151 267 9109513 sel 0 1 2 3;
#P inlet 58 129 15 0;
#P outlet 58 329 15 0;
#P window linecount 1;
#P comment 77 330 155 9109513 fest til høyre inngang på jcom.crop;
#P comment 356 162 238 9109513 hver "p crop-preset" inneholder en preset for cropping;
#P connect 3 0 4 0;
#P connect 4 0 5 0;
#P connect 8 0 2 0;
#P connect 7 0 2 0;
#P connect 6 0 2 0;
#P connect 5 0 2 0;
#P connect 4 1 6 0;
#P connect 4 2 7 0;
#P connect 4 3 8 0;
#P pop;
#P hidden newobj 121 69 52 9109513 p autocrop;
#P user jit.fpsgui 121 12 60 9109513 0;
#N vpatcher 9 34 512 388;
#P window setfont "Sans Serif" 9.;
#P window linecount 0;
#P comment 303 156 69 9109513 Down: Yellow;
#P comment 226 156 59 9109513 Up: Blue;
#P comment 131 155 54 9109513 Right: Red;
#P comment 40 155 59 9109513 Left: Green;
#N vpatcher 251 115 921 615;
#P window setfont "Sans Serif" 9.;
#P window linecount 0;
#P newex 317 293 62 9109513 jcom.sum%;
#P user multiSlider 318 337 206 88 -1. 1. 1 3961 15 0 0 2 0 0 0;
#M frgb 0 0 0;
#M brgb 255 255 255;
#M rgb2 127 127 127;
#M rgb3 0 0 0;
#M rgb4 37 52 91;
#M rgb5 74 105 182;
#M rgb6 112 158 18;
#M rgb7 149 211 110;
#M rgb8 187 9 201;
#M rgb9 224 62 37;
#M rgb10 7 114 128;
#P newex 89 315 41 9109513 * 100.;
#P user multiSlider 86 342 206 88 -1. 1. 1 3961 15 0 0 2 0 0 0;
#M frgb 0 0 0;
#M brgb 255 255 255;
#M rgb2 127 127 127;
#M rgb3 0 0 0;
#M rgb4 37 52 91;
#M rgb5 74 105 182;
#M rgb6 112 158 18;
#M rgb7 149 211 110;
#M rgb8 187 9 201;
#M rgb9 224 62 37;
#M rgb10 7 114 128;
#P flonum 166 283 74 9 0 0 0 139 0 0 0 221 221 221 222 222 222 0 0 0;
#P newex 166 250 62 9109513 jcom.sum%;
#P flonum 86 284 74 9 0 0 0 139 0 0 0 221 221 221 222 222 222 0 0 0;
#P newex 86 251 62 9109513 jcom.sum%;
#P newex 385 197 71 9109513 jit.op @op abs;
#P newex 141 198 71 9109513 jit.op @op abs;
#P newex 280 150 124 9109513 jit.clip @min -1. @max 1.;
#P newex 280 124 105 9109513 jit.op @op * @val 0.3;
#P newex 35 150 124 9109513 jit.clip @min -1. @max 1.;
#P newex 35 124 105 9109513 jit.op @op * @val 0.3;
#P newex 478 154 32 9109513 * -1.;
#N comlet (matrix) Vertical flow;
#P outlet 266 278 15 0;
#N comlet (matrix) Horizontal flow;
#P outlet 21 289 15 0;
#N comlet (float) threshold;
#P inlet 375 24 15 0;
#N comlet (matrix) Vertical flow;
#P inlet 280 24 15 0;
#N comlet (matrix) Horizontal flow;
#P inlet 35 24 15 0;
#P newex 234 154 32 9109513 * -1.;
#P flonum 375 56 35 9 0. 1. 3 139 0 0 0 221 221 221 222 222 222 0 0 0;
#P flonum 130 56 35 9 0. 1. 3 139 0 0 0 221 221 221 222 222 222 0 0 0;
#P newex 266 226 53 9109513 jit.pack;
#P newex 385 177 103 9109513 jit.op @op <p @val 0.;
#P newex 280 177 103 9109513 jit.op @op >p @val 0.;
#P window linecount 1;
#P newex 266 204 20 9109513 t b;
#P window linecount 0;
#P newex 21 237 53 9109513 jit.pack;
#P newex 141 177 103 9109513 jit.op @op <p @val 0.;
#P newex 35 177 103 9109513 jit.op @op >p @val 0.;
#P window linecount 1;
#P newex 21 215 20 9109513 t b;
#P fasten 1 0 0 0 40 197 26 197;
#P connect 0 0 3 0;
#P connect 3 0 14 0;
#P connect 11 0 17 0;
#P connect 17 0 18 0;
#P connect 18 0 1 0;
#P connect 1 0 3 1;
#P fasten 21 0 3 2 146 223 54 223;
#P connect 1 0 23 0;
#P connect 23 0 24 0;
#P connect 28 0 27 0;
#P connect 24 0 28 0;
#P fasten 13 0 8 0 380 44 135 44;
#P connect 8 0 17 1;
#P fasten 18 0 2 0 40 172 146 172;
#P connect 2 0 21 0;
#P connect 21 0 25 0;
#P connect 25 0 26 0;
#P connect 10 0 2 1;
#P fasten 5 0 4 0 285 197 271 197;
#P connect 4 0 7 0;
#P connect 7 0 15 0;
#P connect 12 0 19 0;
#P connect 19 0 20 0;
#P connect 20 0 5 0;
#P connect 5 0 7 1;
#P fasten 5 0 7 2 285 211 299 211;
#P fasten 22 0 7 3 390 219 313 219;
#P connect 11 0 30 0;
#P connect 30 0 29 0;
#P connect 13 0 9 0;
#P connect 9 0 19 1;
#P fasten 20 0 6 0 285 171 390 171;
#P connect 6 0 22 0;
#P connect 16 0 6 1;
#P pop;
#P newobj 26 106 61 9109513 p visualizer;
#P user jit.pwindow 210 170 162 122 0 1 0 0 1 0;
#P user jit.pwindow 25 171 162 122 0 1 0 0 1 0;
#P newex 26 84 61 9109513 jit.unpack 2;
#P comment 279 138 93 9109513 Vertical movement;
#B frgb 255 255 255;
#P comment 83 138 103 9109513 Horizontal movement;
#B frgb 255 255 255;
#P user panel 17 133 179 167;
#X brgb 140 140 140;
#X frgb 0 0 0;
#X border 0;
#X rounded 0;
#X shadow 0;
#X done;
#P user panel 201 133 179 167;
#X brgb 140 140 140;
#X frgb 0 0 0;
#X border 0;
#X rounded 0;
#X shadow 0;
#X done;
#P window linecount 3;
#P user com 152 51 292 9109513 82;
#K set 0 21608 25888 30305 27765 25971 8303 26144 29800 25888 28533 29808 30068 8301 24948 29289 30752 24946 25888 25971 29801 28001 29801 28526 29472 28518 8308 26721 29728 28777 30821 27687 29472 25705 29552 27745 25445 28005 28276 8291 28525 28769 29285 25632 29807 8308 26725 8304 29285 30313 28533 29472 26226 24941 25902 8270 25959 24948 26998 25888 30305 27765 25971 8297 28260 26979 24948 25888 27749 26228 30561 29284 8289 28260 8309 28791 24946 25632 28015 30309 28005 28276 29486;
#K end;
#P user panel 142 45 308 54;
#X brgb 210 210 195;
#X frgb 140 140 140;
#X border 1;
#X rounded 0;
#X shadow 0;
#X done;
#P window linecount 1;
#P newex 26 61 68 9109513 cv.jit.HSflow;
#P newex 26 40 64 9109513 jit.rgb2luma;
#P inlet 26 21 15 0;
#P connect 0 0 1 0;
#P connect 1 0 2 0;
#P connect 2 0 9 0;
#P connect 9 0 12 0;
#P fasten 12 0 10 0 31 160 31 160;
#P connect 9 1 12 1;
#P fasten 12 1 11 0 82 128 216 128;
#P pop;
#P hidden newobj 1035 553 38 9109513 p flow;
#N vpatcher 93 117 830 617;
#P origin 11 28;
#P inlet 87 1 15 0;
#P window setfont "Sans Serif" 9.;
#P window linecount 0;
#N vpatcher 456 44 964 536;
#P origin 0 77;
#P inlet 23 22 15 0;
#P window setfont "Sans Serif" 9.;
#P window linecount 0;
#P comment 200 228 265 9109513 no normalisation;
#P comment 198 276 239 9109513 norm mode sum normalises the histogram to sum 1;
#P window linecount 2;
#P comment 64 332 108 9109513 output column vector of frequencies;
#P user ftm.mess 129 226 50 15 3 9 255 255 255 0 0 0 1 2 0 0 --> 2;
#T _#ftm version 2 2;
#T _#scope begin;
#T _#absargs $0_ $1_ $2_ $3_ $4_ $5_ $6_ $7_ $8_ $9_;
#T _#line "_norm off";
#P hidden user ftm.mess 23 387 50 15 3 9 255 255 255 0 0 0 1 2 0 0 --> 2;
#T _#line "_($1 col 1)";
#P window linecount 1;
#P message 23 437 142 9109513 sum = 1. max = 2.006993;
#P hidden user ftm.mess 23 412 164 15 3 9 255 255 255 0 0 0 1 2 0 0 --> 2;
#T _#line "_set sum = ($1 max)  max = ($1 sum)";
#P user ftm.mess 129 276 52 15 3 9 255 255 255 0 0 0 1 2 0 0 --> 2;
#T _#line "_norm sum";
#P user ftm.mess 129 251 52 15 3 9 255 255 255 0 0 0 1 2 0 0 --> 2;
#T _#line "_norm max";
#P comment 199 251 265 9109513 norm mode max normalises the histogram to maximum 1;
#P button 202 355 15 0;
#P user gswitch2 23 149 39 32 0 0;
#P window linecount 3;
#P comment 29 250 29 9109513 send fmat in;
#P window linecount 1;
#P message 87 56 33 9109513 clear;
#P user ftm.vecdisplay 202 380 199 76 0. 127. 127. 190 190 190 0 5 3 0. 1. 255 0 0 2 0. 1. 233 74 255 1 0. 1. 0 0 255 1 0. 1. 255 0 255 1 0. 1. 255 255 0;
#P message 41 56 33 9109513 dump;
#P newex 23 84 69 9109513 mnm.q 1 100;
#P window setfont "Sans Serif" 12.;
#N mnm.hist 20 @norm max --> 2;
#P newobj 23 304 160 9109516 mnm.hist 20 @norm max;
#B color 13;
#P fasten 2 0 1 0 46 78 28 78;
#P fasten 4 0 1 0 92 78 28 78;
#P connect 18 0 1 0;
#P connect 6 0 0 0;
#P connect 9 0 0 0;
#P connect 10 0 0 0;
#P connect 14 0 0 0;
#P hidden connect 0 0 11 0;
#P hidden connect 13 0 11 0;
#P hidden connect 11 0 12 0;
#P connect 1 1 6 1;
#P connect 1 0 6 1;
#P connect 7 0 3 0;
#P fasten 0 0 3 0 28 376 207 376;
#P pop;
#P newobj 331 71 40 9109513 p histo;
#P comment 186 50 34 9109513 limit2;
#P comment 132 50 34 9109513 limit1;
#P window linecount 4;
#P comment 15 481 56 9109513 ifft1= filtered keeping all others;
#P window linecount 1;
#P comment 725 322 252 9109513 sum of freqency intensities between limit1 and limit2;
#P user ftm.mess 185 64 50 15 3 9 255 255 255 0 0 0 1 2 0 1 --> 1;
#T _#line _32;
#P user ftm.mess 132 64 50 15 3 9 255 255 255 0 0 0 1 2 0 1 --> 1;
#T _#line "_ 8";
#T _#scope end;
#P comment 724 385 254 9109513 sum of freqency intensities between limit2 and size/2;
#P comment 723 269 235 9109513 sum of freqency intensities between 1 and limit1;
#P comment 725 214 50 9109513 DC offset;
#P window linecount 6;
#P comment 16 369 55 9109513 ifft1= filtered keeping frequencies from limit11 to limit2;
#P window linecount 1;
#P comment 17 166 38 9109513 signal;
#P user ftm.vecdisplay 158 157 255 92 0. 127. 127. 190 190 190 0 5 1 -1. 1. 165 49 49 1 -12. 12. 150 0 11 1 0. 1. 0 0 255 1 0. 1. 255 0 255 1 0. 1. 255 255 0;
#P number 185 84 35 9 0 0 0 139 0 0 0 221 221 221 222 222 222 0 0 0;
#P number 136 84 35 9 1 0 1 139 0 0 0 221 221 221 222 222 222 0 0 0;
#P user ftm.vecdisplay 130 257 255 92 0. 20. 10. 190 190 190 0 5 3 0. 10. 165 49 49 1 -12. 12. 150 0 11 1 0. 1. 0 0 255 1 0. 1. 255 0 255 1 0. 1. 255 255 0;
#P user ftm.vecdisplay 95 359 255 92 0. 127. 127. 190 190 190 0 5 1 -1. 1. 165 49 49 1 -12. 12. 150 0 11 1 0. 1. 0 0 255 1 0. 1. 255 0 255 1 0. 1. 255 255 0;
#P user ftm.vecdisplay 87 460 255 92 0. 127. 127. 190 190 190 0 5 1 -1. 1. 165 49 49 1 -12. 12. 150 0 11 1 0. 1. 0 0 255 1 0. 1. 255 0 255 1 0. 1. 255 255 0;
#P user multiSlider 477 175 242 252 0. 1. 4 3961 15 0 0 2 0 0 0;
#M frgb 0 0 0;
#M brgb 255 255 255;
#M rgb2 127 127 127;
#M rgb3 0 0 0;
#M rgb4 37 52 91;
#M rgb5 74 105 182;
#M rgb6 112 158 18;
#M rgb7 149 211 110;
#M rgb8 187 9 201;
#M rgb9 224 62 37;
#M rgb10 7 114 128;
#P newex 479 150 82 9109513 ftm.list;
#P newex 87 105 109 9109513 mnm.fftfilter 128 1 1;
#P comment 21 266 21 9109513 fft;
#P connect 22 0 1 0;
#P connect 1 0 4 0;
#P connect 1 1 5 0;
#P connect 1 3 6 0;
#P connect 15 0 7 0;
#P connect 7 0 1 1;
#P connect 1 4 9 0;
#P connect 16 0 8 0;
#P connect 8 0 1 2;
#P fasten 22 0 21 0 92 43 336 43;
#P fasten 2 0 3 0 484 163 482 163;
#P connect 1 2 2 0;
#P pop;
#P hidden newobj 1007 391 76 9109513 p ftm-analysis;
#P comment 512 130 74 9109513 motion image;
#P comment 358 127 74 9109513 cropped image;
#P comment 88 51 33 9109513 mode;
#P comment 35 29 58 9109513 start/stop;
#N vpatcher 293 204 825 590;
#P window setfont "Sans Serif" 9.;
#P window linecount 1;
#P newex 50 205 48 9109513 jit.change;
#P message 241 100 41 9109513 frame 0;
#P newex 241 75 41 9109513 r tostart;
#P newex 183 75 56 9109513 r filmtempo;
#P message 183 100 42 9109513 rate \$1;
#P window linecount 3;
#P comment 96 305 265 9109513 Det gjør ikke noe om dere setter den til 40 \, men det krever litt prosessorkraft \, så dere får vurdere om det virker som om systemet går for tregt hvis den står på 40.;
#P outlet 24 220 15 0;
#P window linecount 0;
#P newex 307 89 19 9109513 t 1;
#P toggle 307 113 27 0;
#P newex 307 66 41 9109513 sel read;
#N vpatcher 211 477 753 824;
#P window setfont "Sans Serif" 9.;
#P window linecount 0;
#P newex 41 100 20 9109513 t b;
#P window linecount 1;
#P message 86 176 38 9109513 getfps;
#P message 417 176 73 9109513 getframecount;
#P message 348 176 65 9109513 getlooppoints;
#P message 304 176 40 9109513 getloop;
#P message 241 176 59 9109513 getduration;
#P message 173 176 65 9109513 gettimescale;
#P message 128 176 42 9109513 gettime;
#P message 41 176 42 9109513 getrate;
#P inlet 41 40 15 0;
#P newex 41 70 57 9109513 route read;
#P newex 41 265 59 9109513 s to-movie;
#P connect 1 0 11 0;
#P connect 11 0 3 0;
#P connect 8 0 0 0;
#P connect 10 0 0 0;
#P connect 9 0 0 0;
#P connect 7 0 0 0;
#P connect 6 0 0 0;
#P connect 5 0 0 0;
#P connect 4 0 0 0;
#P connect 3 0 0 0;
#P connect 11 0 10 0;
#P connect 11 0 4 0;
#P connect 11 0 5 0;
#P connect 11 0 6 0;
#P connect 11 0 7 0;
#P connect 11 0 8 0;
#P connect 11 0 9 0;
#P pop;
#P newobj 321 205 59 9109513 p get-stuff;
#P newex 50 230 51 9109513 t gettime;
#N vpatcher 217 78 954 578;
#P window setfont "Sans Serif" 9.;
#P window linecount 0;
#P newex 434 108 19 9109513 t 1;
#P newex 432 73 28 9109513 sel 0;
#P window linecount 1;
#P newex 607 204 44 9109513 pack 0 0;
#P newex 607 180 49 9109513 * 1024;
#P number 607 158 35 9 0 0 0 139 0 0 0 221 221 221 222 222 222 0 0 0;
#P message 607 229 96 9109513 framedump 0 \$1 \$2;
#P inlet 53 32 24 0;
#P newex 177 310 27 9109513 t l b;
#P message 255 348 107 9109513 /motiongram%/clear;
#P newex 255 372 161 9109513 jcom.send jcom.remote.module.to;
#P objectname xraymean[2];
#P window linecount 0;
#P newex 180 252 32 9109513 sel 1;
#P newex 180 231 42 9109513 > 2048;
#P window linecount 2;
#P comment 315 170 64 9109513 Total frames in movie;
#P comment 315 218 74 9109513 Find ncessary frame spacing;
#P window linecount 1;
#P newex 133 199 21 9109513 t 0;
#P newex 133 102 72 9109513 r from-movie;
#P newex 68 281 80 9109513 s clear-window;
#P objectname xraymean[1];
#P toggle 53 171 29 0;
#P newex 53 216 41 9109513 sel 0 1;
#P button 68 241 15 0;
#P newex 256 245 43 9109513 route 0;
#P newex 177 281 110 9109513 pack framedump 0 1 1;
#P number 256 223 35 9 0 0 0 139 0 0 0 221 221 221 222 222 222 0 0 0;
#P newex 256 199 43 9109513 / 1024;
#P newex 394 174 82 9109513 t getframecount;
#P number 243 176 68 9 0 0 0 139 0 0 0 221 221 221 222 222 222 0 0 0;
#P number 180 199 46 9 0 0 0 139 0 0 0 221 221 221 222 222 222 0 0 0;
#P newex 133 176 57 9109513 route done;
#P newex 133 135 164 9109513 route framedump framecount read;
#P message 53 315 86 9109513 cancelframedump;
#P newex 177 348 59 9109513 s to-movie;
#P comment 14 180 34 9109513 Dump;
#P comment 162 219 79 9109513 Dumped frames;
#P connect 32 0 15 0;
#P fasten 18 0 15 0 138 221 115 221 115 164 58 164;
#P connect 15 0 14 0;
#P connect 14 0 3 0;
#P connect 14 1 13 0;
#P connect 13 0 16 0;
#P connect 17 0 4 0;
#P connect 4 0 5 0;
#P connect 22 0 18 0;
#P connect 5 0 18 0;
#P fasten 13 0 11 0 73 275 182 275;
#P connect 27 0 25 0;
#P connect 11 0 25 0;
#P connect 25 0 2 0;
#P fasten 8 0 2 0 399 333 182 333;
#P fasten 3 0 2 0 58 340 182 340;
#P connect 5 1 6 0;
#P connect 6 0 21 0;
#P connect 21 0 22 0;
#P connect 7 0 21 1;
#P fasten 4 1 7 0 189 169 248 169;
#P connect 7 0 11 2;
#P connect 25 1 24 0;
#P connect 24 0 23 0;
#P connect 7 0 9 0;
#P connect 9 0 10 0;
#P connect 10 0 12 0;
#P connect 12 1 11 3;
#P fasten 4 2 8 0 240 159 399 159;
#P connect 26 0 31 0;
#P connect 31 0 32 0;
#P connect 31 1 28 0;
#P connect 28 0 29 0;
#P connect 29 0 30 0;
#P connect 30 0 27 0;
#P fasten 28 0 30 1 612 176 646 176;
#P pop;
#P newobj 307 172 47 9109513 p mode1;
#P newex 125 75 41 9109513 sel 1 0;
#P newex 246 205 72 9109513 s from-movie;
#P newex 61 143 53 9109513 r to-movie;
#P objectname receive;
#P message 155 100 27 9109513 stop;
#P message 125 100 31 9109513 start;
#P flonum 85 100 35 9 0.5 0 1 139 0 0 0 221 221 221 222 222 222 0 0 0;
#P objectname flonum;
#P newex 50 120 45 9109513 qmetro 2;
#P newex 50 177 149 9109513 jit.qt.movie @autostart 0 @loop 0;
#B color 5;
#P objectname jit.qt.movie;
#P inlet 396 58 15 0;
#P inlet 12 42 15 0;
#P inlet 50 45 15 0;
#P comment 96 263 265 9109513 Jeg har endret denne til speedlim 40 \, det kan hende at det holder med 100 for dere. det kommer an på samplingsfrekvensen til videoen;
#P fasten 4 0 18 0 55 200 29 200;
#P connect 1 0 5 0;
#P fasten 13 0 4 0 55 258 8 258 8 167 13 167 13 170 55 170;
#P fasten 9 0 4 0 66 170 55 170;
#P fasten 8 0 4 0 160 170 55 170;
#P fasten 7 0 4 0 130 170 55 170;
#P fasten 2 0 4 0 17 170 55 170;
#P fasten 20 0 4 0 188 170 55 170;
#P fasten 23 0 4 0 246 170 55 170;
#P fasten 5 0 4 0 55 157 55 157;
#P connect 4 0 24 0;
#P connect 24 0 13 0;
#P connect 6 0 5 1;
#P fasten 1 0 11 0 55 67 130 67;
#P connect 11 0 7 0;
#P connect 11 1 8 0;
#P connect 21 0 20 0;
#P connect 22 0 23 0;
#P fasten 4 1 10 0 194 200 251 200;
#P connect 15 0 17 0;
#P connect 17 0 16 0;
#P connect 3 0 12 0;
#P connect 16 0 12 0;
#P fasten 4 1 14 0 194 200 326 200;
#P pop;
#P hidden newobj 5 71 74 9109513 p player-stuff;
#P hidden newex 263 404 81 9109513 jcom.autosize%;
#P hidden newex 335 103 141 9109513 jit.glue @rows 1 @columns 2;
#P hidden newex 335 123 138 9109513 jcom.autosize% @width 320;
#P hidden newex 167 98 64 9109513 jcom.crop%;
#P comment 13 127 226 9109513 click and drag in the window below to crop.;
#P user jit.pwindow 4 124 310 235 0 1 0 0 1 0;
#P user jit.pwindow 334 142 322 113 0 1 0 0 1 0;
#P bpatcher 5 365 255 60 0 0 jmod.motiongram%.mxt 0;
#P objectname /motiongram%;
#P user jit.pwindow 4 428 322 242 0 1 0 0 1 0;
#P bpatcher 329 29 255 60 0 0 jmod.motion%.mxt 0 /motion%;
#P objectname /motion%;
#P user multiSlider 989 201 85 160 0. 1. 1 3192 15 0 0 2 0 0 0;
#M frgb 0 0 0;
#M brgb 255 255 255;
#M rgb2 127 127 127;
#M rgb3 0 0 0;
#M rgb4 37 52 91;
#M rgb5 74 105 182;
#M rgb6 112 158 18;
#M rgb7 149 211 110;
#M rgb8 187 9 201;
#M rgb9 224 62 37;
#M rgb10 7 114 128;
#P user multiSlider 827 201 160 85 0. 1. 1 3705 15 0 0 2 0 0 0;
#M frgb 0 0 0;
#M brgb 255 255 255;
#M rgb2 127 127 127;
#M rgb3 0 0 0;
#M rgb4 37 52 91;
#M rgb5 74 105 182;
#M rgb6 112 158 18;
#M rgb7 149 211 110;
#M rgb8 187 9 201;
#M rgb9 224 62 37;
#M rgb10 7 114 128;
#P comment 989 184 22 9109513 - y;
#P comment 848 184 95 9109513 Motion location - x;
#P comment 825 70 123 9109513 Quantity of Motion (QoM);
#P flonum 1014 184 29 9 0 0 8224 139 0 0 0 221 221 221 222 222 222 0 0 0;
#P flonum 951 184 31 9 0 0 8224 139 0 0 0 221 221 221 222 222 222 0 0 0;
#P hidden newex 748 122 74 9109513 jcom.autoscale;
#P flonum 948 70 29 9 0 0 8224 139 0 0 0 221 221 221 222 222 222 0 0 0;
#P hidden newex 623 37 150 9109513 jcom.oscroute /quantity /x /y;
#P user multiSlider 827 85 505 89 0. 1. 1 3961 15 0 0 2 0 0 0;
#M frgb 0 0 0;
#M brgb 255 255 255;
#M rgb2 127 127 127;
#M rgb3 0 0 0;
#M rgb4 37 52 91;
#M rgb5 74 105 182;
#M rgb6 112 158 18;
#M rgb7 149 211 110;
#M rgb8 187 9 201;
#M rgb9 224 62 37;
#M rgb10 7 114 128;
#P hidden newex 623 15 173 9109513 jcom.oscroute /motion /contraction;
#P user umenu 4 48 82 9109543 1 64 64 1;
#X add Automatic;
#X add 1 frame;
#X add 2 frames;
#X add 3 frames;
#X add 4 frames;
#X add 5 frames;
#X add 6 frames;
#X add 7 frames;
#X add 8 frames;
#X add 9 frames;
#P message 5 6 28 9109513 read;
#P toggle 5 27 15 0;
#P objectname toggle;
#P comment 35 8 23 9109513 file;
#P comment 235 50 35 9109513 tempo;
#P comment 1032 419 68 9109513 ftm-analysis;
#P comment 1032 444 68 9109513 flow;
#P toggle 805 184 15 0;
#P window setfont "Sans Serif" 14.;
#P comment 481 319 100 9109518 Skriv til txt-fil;
#P user panel 476 316 316 50;
#X brgb 255 255 200;
#X frgb 0 0 0;
#X border 0;
#X rounded 0;
#X shadow 0;
#X done;
#P user panel 476 370 192 119;
#X brgb 165 165 165;
#X frgb 0 0 0;
#X border 0;
#X rounded 0;
#X shadow 0;
#X done;
#P user panel 674 370 192 119;
#X brgb 165 165 165;
#X frgb 0 0 0;
#X border 0;
#X rounded 0;
#X shadow 0;
#X done;
#P user panel 468 309 406 187;
#X brgb 191 191 191;
#X frgb 0 0 0;
#X border 1;
#X rounded 0;
#X shadow 0;
#X done;
#P user panel 1 97 119 22;
#X brgb 255 255 200;
#X frgb 0 0 0;
#X border 0;
#X rounded 0;
#X shadow 0;
#X done;
#P user panel 775 68 50 22;
#X brgb 255 255 200;
#X frgb 0 0 0;
#X border 0;
#X rounded 0;
#X shadow 0;
#X done;
#P user panel 1000 409 122 59;
#X brgb 255 255 200;
#X frgb 0 0 0;
#X border 0;
#X rounded 0;
#X shadow 0;
#X done;
#P user panel 1 1 287 72;
#X brgb 255 255 200;
#X frgb 0 0 0;
#X border 0;
#X rounded 0;
#X shadow 0;
#X done;
#P user panel 775 180 50 22;
#X brgb 255 255 200;
#X frgb 0 0 0;
#X border 0;
#X rounded 0;
#X shadow 0;
#X done;
#P hidden connect 16 0 40 0;
#P hidden fasten 93 0 34 0 124 121 10 121;
#P hidden fasten 39 0 31 0 268 428 10 428;
#P hidden connect 15 0 40 1;
#P hidden connect 17 0 40 2;
#P hidden fasten 92 0 93 0 10 118 113 118 113 96 124 96;
#P hidden connect 40 0 47 0;
#P hidden connect 49 0 48 0;
#P hidden fasten 36 0 93 1 172 118 163 118 163 96 156 96;
#P hidden fasten 40 0 36 0 10 93 172 93;
#P hidden fasten 69 0 71 0 205 40 195 40 195 -3 205 -3;
#P hidden fasten 53 0 50 0 293 48 205 48;
#P hidden connect 50 0 51 0;
#P hidden fasten 34 1 36 1 308 364 325 364 325 88 226 88;
#P hidden fasten 48 0 36 1 126 91 226 91;
#P hidden connect 30 1 32 1;
#P hidden fasten 32 2 39 0 254 426 261 426 261 401 268 401;
#P hidden connect 52 0 53 0;
#P hidden connect 36 1 38 0;
#P hidden connect 38 0 37 0;
#P hidden connect 37 0 33 0;
#P hidden fasten 30 1 38 1 579 91 471 91;
#P hidden fasten 83 0 85 0 544 454 526 454;
#P connect 83 0 80 0;
#P hidden connect 36 1 30 1;
#P hidden fasten 20 0 80 1 628 123 657 123 657 373 588 373;
#P lcolor 2;
#P hidden fasten 30 0 18 0 334 95 611 95 611 10 628 10;
#P hidden connect 18 0 20 0;
#P hidden fasten 83 0 84 0 544 451 518 451 518 480 661 480 661 380 631 380;
#P hidden connect 84 0 82 0;
#P fasten 81 0 80 2 632 453 632 453;
#P hidden fasten 82 0 80 2 631 427 618 427 618 453 632 453;
#P hidden fasten 61 0 64 0 740 454 722 454;
#P connect 61 0 58 0;
#P hidden connect 20 0 74 0;
#P hidden connect 74 0 22 0;
#P hidden fasten 20 1 58 1 674 385 769 385;
#P lcolor 2;
#P hidden fasten 20 1 73 0 674 214 776 214;
#P hidden connect 72 0 74 1;
#P hidden fasten 20 2 73 1 720 206 793 206;
#P hidden fasten 20 2 58 2 720 382 798 382;
#P lcolor 2;
#P hidden fasten 55 0 72 0 1013 437 1340 437 1340 46 810 46;
#P hidden connect 10 0 73 2;
#P hidden fasten 61 0 62 0 740 451 713 451 713 480 856 480 856 380 827 380;
#P hidden connect 62 0 60 0;
#P fasten 59 0 58 3 827 453 827 453;
#P hidden fasten 60 0 58 3 827 427 813 427 813 453 827 453;
#P hidden fasten 22 0 19 0 753 144 824 144 824 82 832 82;
#P hidden connect 23 0 28 0;
#P hidden fasten 74 0 21 0 755 117 820 117 820 64 953 64;
#P hidden fasten 73 0 23 0 776 244 824 244 824 183 956 183;
#P hidden fasten 36 1 77 0 199 121 318 121 318 295 459 295 459 504 979 504;
#P hidden connect 24 0 29 0;
#P hidden fasten 55 0 54 0 1013 440 997 440 997 363 1012 363;
#P hidden fasten 87 0 45 0 1087 388 1012 388;
#P hidden connect 54 0 45 0;
#P hidden connect 56 0 77 1;
#P hidden fasten 73 1 24 0 810 240 822 240 822 181 1019 181;
#P hidden fasten 56 0 67 0 1013 468 1040 468;
#P hidden connect 67 0 68 0;
#P hidden fasten 90 0 66 0 1069 525 1040 525;
#P hidden connect 68 0 66 0;
#P hidden fasten 77 0 46 0 979 550 1040 550;
#P hidden connect 66 0 46 0;
#P hidden fasten 22 0 54 1 753 176 1044 176;
#P hidden fasten 67 1 90 0 1055 504 1069 504;
#P hidden fasten 55 0 88 0 1013 437 1160 437 1160 315 1087 315;
#P hidden connect 88 0 89 0;
#P hidden fasten 91 0 87 0 1116 364 1087 364;
#P hidden connect 89 0 87 0;
#P hidden fasten 88 1 91 0 1102 343 1116 343;
#P pop;
