max v2;
#N vpatcher 21 43 1191 682;
#P origin 43 -69;
#P window setfont "Sans Serif" 9.;
#P hidden newex 1142 106 61 9109513 loadmess 10;
#P comment 1179 133 27 9109513 filter;
#P number 1143 133 35 9 0 0 0 139 0 0 0 221 221 221 222 222 222 0 0 0;
#P hidden newex 103 422 37 9109513 t /clear;
#P hidden newex 39 423 58 9109513 r clear-stats;
#P user lcd 1007 150 200 200 1 1 0 0 0;
#P comment 994 149 14 9109513 Y;
#P comment 1193 352 14 9109513 X;
#P comment 1019 135 77 9109513 Centroid of QoM;
#P message 5 423 34 9109513 export;
#P hidden newex 1006 69 61 9109513 pack 0. 0. 0.;
#P button 841 146 15 0;
#P message 772 161 30 9109513 /write;
#P toggle 772 144 15 0;
#N vpatcher 623 150 1223 550;
#P window setfont "Sans Serif" 9.;
#P window linecount 1;
#P newex 79 183 34 9109513 t clear;
#P inlet 104 39 15 0;
#P window linecount 0;
#P newex 104 126 32 9109513 sel 1;
#P toggle 251 106 15 0;
#P newex 251 129 29 9109513 gate;
#P outlet 27 333 15 0;
#P newex 27 278 70 9109513 speedlim 500;
#P newex 149 307 103 9109513 print Text-message:;
#P inlet 387 38 15 0;
#P newex 226 198 27 9109513 i;
#P newex 226 246 53 9109513 append cr;
#P newex 226 222 52 9109513 zl join;
#P newex 251 150 27 9109513 t b l;
#P newex 226 176 35 9109513 timer;
#P newex 119 278 40 9109513 text;
#P connect 5 0 8 0;
#P lcolor 5;
#P connect 8 0 9 0;
#P fasten 12 0 14 0 109 164 84 164;
#P connect 13 0 12 0;
#P fasten 4 0 0 0 231 270 124 270;
#P connect 14 0 0 0;
#P connect 0 2 7 0;
#P fasten 12 0 1 0 109 171 231 171;
#P connect 1 0 5 0;
#P connect 5 0 3 0;
#P connect 3 0 4 0;
#P fasten 13 0 11 0 109 80 256 80;
#P connect 11 0 10 0;
#P connect 10 0 2 0;
#P connect 2 0 1 1;
#P connect 2 1 3 1;
#P fasten 6 0 10 1 392 121 275 121;
#P pop;
#P hidden newobj 772 182 54 9109513 p textwriter;
#P message 680 38 28 9109513 clear;
#P hidden newex 710 39 60 9109513 s clear-stats;
#P hidden newex 137 35 28 9109513 sel 1;
#P flonum 910 106 29 9 0 0 8224 139 0 0 0 221 221 221 222 222 222 0 0 0;
#P flonum 844 106 29 9 0 0 8224 139 0 0 0 221 221 221 222 222 222 0 0 0;
#P flonum 877 106 29 9 0 0 8224 139 0 0 0 221 221 221 222 222 222 0 0 0;
#N vpatcher 25 70 365 282;
#P window setfont "Sans Serif" 9.;
#P newex 140 35 70 9109513 t 60000 clear 0;
#P newex 140 11 58 9109513 r clear-stats;
#P outlet 120 138 15 0;
#P outlet 85 138 15 0;
#P newex 35 79 45 9109513 trough 0.;
#P newex 120 79 40 9109513 peak 0.;
#P outlet 35 138 15 0;
#P inlet 35 28 15 0;
#P newex 85 79 31 9109513 mean;
#P connect 1 0 4 0;
#P connect 4 0 2 0;
#P connect 8 0 4 1;
#P fasten 1 0 0 0 40 61 90 61;
#P connect 8 1 0 0;
#P connect 0 0 5 0;
#P fasten 1 0 3 0 40 61 125 61;
#P connect 3 0 6 0;
#P connect 7 0 8 0;
#P connect 8 2 3 1;
#P pop;
#P hidden newobj 944 106 37 9109513 p stats;
#P flonum 910 84 29 9 0 0 8224 139 0 0 0 221 221 221 222 222 222 0 0 0;
#P flonum 844 84 29 9 0 0 8224 139 0 0 0 221 221 221 222 222 222 0 0 0;
#P flonum 877 84 29 9 0 0 8224 139 0 0 0 221 221 221 222 222 222 0 0 0;
#N vpatcher 25 70 365 282;
#P window setfont "Sans Serif" 9.;
#P newex 140 35 70 9109513 t 60000 clear 0;
#P newex 140 11 58 9109513 r clear-stats;
#P outlet 120 138 15 0;
#P outlet 85 138 15 0;
#P newex 35 79 45 9109513 trough 0.;
#P newex 120 79 40 9109513 peak 0.;
#P outlet 35 138 15 0;
#P inlet 35 28 15 0;
#P newex 85 79 31 9109513 mean;
#P connect 1 0 4 0;
#P connect 4 0 2 0;
#P connect 8 0 4 1;
#P fasten 1 0 0 0 40 61 90 61;
#P connect 8 1 0 0;
#P connect 0 0 5 0;
#P fasten 1 0 3 0 40 61 125 61;
#P connect 3 0 6 0;
#P connect 7 0 8 0;
#P connect 8 2 3 1;
#P pop;
#P hidden newobj 944 84 37 9109513 p stats;
#P comment 694 106 95 9109513 Motion location - y;
#P comment 679 61 114 9109513 Quantity of Motion (QoM);
#P comment 695 84 95 9109513 Motion location - x;
#P hidden newex 539 58 35 9109513 t 0.1 1;
#P comment 613 89 46 9109513 noise;
#P toggle 597 88 15 0;
#P comment 799 42 38 9109513 running;
#P comment 910 43 23 9109513 max;
#P comment 877 42 31 9109513 mean;
#P hidden message 166 37 28 9109513 clear;
#P hidden newex 196 38 60 9109513 s clear-stats;
#P flonum 910 61 29 9 0 0 8224 139 0 0 0 221 221 221 222 222 222 0 0 0;
#P flonum 844 61 29 9 0 0 8224 139 0 0 0 221 221 221 222 222 222 0 0 0;
#P flonum 877 61 29 9 0 0 8224 139 0 0 0 221 221 221 222 222 222 0 0 0;
#N vpatcher 25 70 365 282;
#P window setfont "Sans Serif" 9.;
#P newex 140 35 70 9109513 t 60000 clear 0;
#P newex 140 11 58 9109513 r clear-stats;
#P outlet 120 138 15 0;
#P outlet 85 138 15 0;
#P newex 35 79 45 9109513 trough 0.;
#P newex 120 79 40 9109513 peak 0.;
#P outlet 35 138 15 0;
#P inlet 35 28 15 0;
#P newex 85 79 31 9109513 mean;
#P connect 1 0 4 0;
#P connect 4 0 2 0;
#P connect 8 0 4 1;
#P fasten 1 0 0 0 40 61 90 61;
#P connect 8 1 0 0;
#P connect 0 0 5 0;
#P fasten 1 0 3 0 40 61 125 61;
#P connect 3 0 6 0;
#P connect 7 0 8 0;
#P connect 8 2 3 1;
#P pop;
#P hidden newobj 944 61 37 9109513 p stats;
#P flonum 539 88 35 9 0. 0 1 139 0 0 0 221 221 221 222 222 222 0 0 0;
#N vpatcher 599 268 974 659;
#P window setfont "Sans Serif" 9.;
#P window linecount 0;
#P message 305 315 28 9109513 clear;
#P window linecount 1;
#P newex 283 274 34 9109513 t clear;
#P inlet 208 20 15 0;
#P toggle 200 156 15 0;
#P number 208 58 35 9 0 0 0 139 0 0 0 221 221 221 222 222 222 0 0 0;
#P window linecount 0;
#P newex 200 177 42 9109513 gate 1 1;
#P window linecount 1;
#P newex 200 251 48 9109513 clip 0 255;
#P inlet 154 25 15 0;
#P inlet 85 25 15 0;
#P window linecount 0;
#P newex 283 232 58 9109513 r clear-stats;
#P newex 200 216 48 9109513 * 100000.;
#P newex 154 251 27 9109513 + 2;
#P newex 102 251 27 9109513 + 2;
#P newex 65 282 114 9109513 pak paintoval 0 0 0 0 255;
#P newex 154 214 41 9109513 * 200.;
#P newex 85 214 41 9109513 * 200.;
#P outlet 65 348 15 0;
#P window linecount 1;
#P newex 154 89 53 9109513 slide 10 10;
#P newex 85 89 53 9109513 slide 10 10;
#P inlet 30 25 15 0;
#P fasten 18 0 3 0 288 320 70 320;
#P connect 6 0 3 0;
#P connect 11 0 1 0;
#P connect 1 0 4 0;
#P connect 4 0 6 1;
#P connect 4 0 7 0;
#P connect 5 0 6 2;
#P connect 15 0 1 1;
#P connect 7 0 6 3;
#P connect 15 0 1 2;
#P connect 8 0 6 4;
#P connect 12 0 2 0;
#P connect 2 0 5 0;
#P connect 5 0 8 0;
#P connect 13 0 6 5;
#P connect 15 0 2 1;
#P connect 15 0 2 2;
#P connect 16 0 14 0;
#P connect 14 0 9 0;
#P connect 9 0 13 0;
#P connect 17 0 15 0;
#P connect 0 0 14 1;
#P connect 10 0 18 0;
#P pop;
#P hidden newobj 1018 109 48 9109513 p motion;
#P objectname motion;
#N vpatcher 323 63 1245 669;
#P window setfont "Sans Serif" 9.;
#P newex 20 126 49 9109513 sel export;
#P button 20 151 15 0;
#P message 20 174 79 9109513 exportimage jpeg;
#N comlet Mean values;
#P outlet 34 556 15 0;
#P newex 622 195 132 9109513 jcom.oscroute /dimensions;
#P newex 261 412 110 9109513 pak dstdimend 1023 239;
#P newex 446 412 110 9109513 pak dstdimend 1023 239;
#P newex 622 321 144 9109513 jcom.oscroute /width /height;
#P button 208 98 15 0;
#P message 208 126 79 9109513 exportimage jpeg;
#P newex 317 179 21 9109513 t 1;
#P newex 682 374 27 9109513 - 1;
#P newex 192 251 27 9109513 + 1;
#P message 446 379 87 9109513 dstdimstart 0 \$1;
#N counter 0 0 239;
#X flags 0 0;
#P newobj 446 357 83 9109513 counter 0 0 239;
#P newex 260 331 47 9109513 gate 2 1;
#P message 260 379 87 9109513 dstdimstart \$1 0;
#P newex 255 303 27 9109513 t l b;
#N counter 0 0 1023;
#X flags 0 0;
#P newobj 260 357 78 9109513 counter 0 0 1023;
#P newex 138 517 177 9109513 jit.matrix 4 char 1024 240 @usedstdim 1;
#P objectname xraymean[3];
#P newex 238 279 68 9109513 jit.normalize;
#P objectname xraymean[4];
#P toggle 317 203 15 0;
#P objectname toggledim[2];
#P message 317 223 48 9109513 mean \$1;
#P toggle 248 203 15 0;
#P objectname toggledim[3];
#P message 248 223 63 9109513 meandim \$1;
#P newex 238 251 284 9109513 xray.jit.mean @out_name meanvector @meandim 0 @mean 1;
#B color 5;
#P objectname xraymean[5];
#P newex 317 157 58 9109513 r jcom.init;
#N comlet Motiongram;
#P outlet 138 554 15 0;
#P newex 34 512 81 9109513 jcom.autosize%;
#P comment 432 47 45 9109513 Video in;
#P newex 36 73 228 9109513 jcom.oscroute export /foo /clear /mode /exportimage;
#P newex 595 372 27 9109513 - 1;
#P number 672 349 35 9 0 0 32 139 0 0 0 221 221 221 222 222 222 0 0 0;
#P newex 572 396 110 9109513 pak dim 1024 150;
#P number 622 349 35 9 0 0 32 139 0 0 0 221 221 221 222 222 222 0 0 0;
#P button 122 98 15 0;
#P message 122 126 33 9109513 clear;
#P message 162 191 14 9109513 0;
#P inlet 409 47 15 0;
#P inlet 36 47 15 0;
#P fasten 0 0 39 0 41 70 25 70;
#P connect 39 0 38 0;
#P connect 38 0 37 0;
#P connect 19 0 11 0;
#P connect 11 0 36 0;
#P connect 0 0 9 0;
#P connect 9 2 4 0;
#P connect 4 0 3 0;
#P fasten 34 0 20 0 266 473 143 473;
#P connect 30 0 20 0;
#P fasten 26 0 20 0 451 397 143 397;
#P fasten 23 0 20 0 265 397 143 397;
#P connect 22 0 20 0;
#P fasten 6 0 20 0 577 507 143 507;
#P connect 3 0 20 0;
#P fasten 33 0 20 0 451 475 143 475;
#P connect 37 0 20 0;
#P connect 20 0 12 0;
#P fasten 4 0 2 0 127 120 167 120;
#P connect 16 0 27 0;
#P connect 9 4 31 0;
#P connect 31 0 30 0;
#P connect 1 0 14 0;
#P fasten 17 0 14 0 322 244 243 244;
#P fasten 15 0 14 0 253 244 243 244;
#P connect 14 0 19 0;
#P connect 9 3 16 0;
#P connect 16 0 15 0;
#P connect 19 0 22 0;
#P fasten 27 0 24 0 197 326 265 326;
#P connect 24 0 21 0;
#P connect 21 0 23 0;
#P connect 2 0 21 2;
#P lcolor 6;
#P fasten 22 1 24 1 277 323 302 323;
#P connect 21 0 34 1;
#P connect 13 0 29 0;
#P connect 29 0 18 0;
#P connect 18 0 17 0;
#P connect 8 0 21 4;
#P lcolor 5;
#P connect 28 0 34 2;
#P fasten 24 1 25 0 302 352 451 352;
#P connect 25 0 26 0;
#P connect 2 0 25 2;
#P lcolor 6;
#P connect 8 0 33 1;
#P connect 28 0 25 4;
#P lcolor 5;
#P connect 25 0 33 2;
#P fasten 5 0 8 0 627 368 600 368;
#P fasten 9 5 35 0 256 96 627 96;
#P connect 35 0 32 0;
#P connect 32 0 5 0;
#P connect 5 0 6 1;
#P connect 32 1 7 0;
#P connect 7 0 6 2;
#P connect 7 0 28 0;
#P pop;
#P hidden newobj 144 423 65 9109513 p motiongram;
#P hidden newex 538 36 45 9109513 loadbang;
#N vpatcher 242 206 620 614;
#P origin -13 -3;
#P window setfont "Sans Serif" 9.;
#P number 144 235 35 9 0 0 0 139 0 0 0 221 221 221 222 222 222 0 0 0;
#P window linecount 1;
#P newex 111 265 49 9109513 slide 3. 3.;
#P newex 236 265 49 9109513 slide 3. 3.;
#P newex 184 265 49 9109513 slide 3. 3.;
#P newex 236 232 27 9109513 / 1.;
#P window linecount 0;
#P newex 184 232 27 9109513 / 1.;
#P window linecount 1;
#P newex 111 232 27 9109513 / 1.;
#P newex 54 135 61 9109513 jcom.change;
#P newex 54 185 27 9109513 *;
#P newex 54 159 54 9109513 unpack 0 0;
#P newex 54 111 47 9109513 route dim;
#P window linecount 0;
#P newex 54 87 60 9109513 jit.matrixinfo;
#P newex 184 189 62 9109513 unpack 0. 0.;
#P newex 184 93 70 9109513 cv.jit.centroids;
#P inlet 184 55 15 0;
#N comlet y;
#P outlet 236 307 15 0;
#N comlet x;
#P outlet 184 307 15 0;
#N comlet QoM;
#P outlet 111 307 15 0;
#P fasten 3 0 6 0 189 78 59 78;
#P connect 6 0 7 0;
#P connect 7 0 10 0;
#P connect 10 0 8 0;
#P connect 8 0 9 0;
#P connect 8 1 9 1;
#P connect 4 1 11 0;
#P connect 11 0 16 0;
#P connect 16 0 0 0;
#P connect 9 0 11 1;
#P connect 17 0 16 1;
#P connect 17 0 16 2;
#P connect 3 0 4 0;
#P connect 4 0 5 0;
#P connect 5 0 12 0;
#P connect 12 0 14 0;
#P connect 14 0 1 0;
#P connect 8 0 12 1;
#P connect 5 1 13 0;
#P connect 13 0 15 0;
#P connect 15 0 2 0;
#P connect 8 1 13 1;
#P pop;
#P hidden newobj 1006 33 143 9109513 p sum;
#N vpatcher 447 207 825 632;
#P origin 0 9;
#P window setfont "Sans Serif" 9.;
#P number 76 139 35 9 0 0 0 139 0 0 0 221 221 221 222 222 222 0 0 0;
#P newex 248 90 27 9109513 + 1;
#P inlet 248 55 15 0;
#P window linecount 1;
#P newex 76 236 47 9109513 jcom.thru;
#P newex 76 157 42 9109513 gate 2 1;
#N vpatcher 498 44 876 389;
#P window setfont "Sans Serif" 9.;
#P window linecount 0;
#P newex 50 69 27 9109513 + 1;
#P toggle 50 50 15 0;
#P newex 50 90 47 9109513 gate 2 2;
#P inlet 21 30 15 0;
#P inlet 50 30 15 0;
#P outlet 50 298 15 0;
#P number 106 131 35 9 0 0 0 139 0 0 0 221 221 221 222 222 222 0 0 0;
#P message 106 149 48 9109513 range \$1;
#P flonum 159 131 35 9 0 0 0 139 0 0 0 221 221 221 222 222 222 0 0 0;
#P flonum 217 131 35 9 0 0 0 139 0 0 0 221 221 221 222 222 222 0 0 0;
#P message 217 149 41 9109513 ring \$1;
#P message 159 149 52 9109513 center \$1;
#P flonum 265 131 47 9 0 0 0 139 0 0 0 221 221 221 222 222 222 0 0 0;
#P message 265 149 49 9109513 ripple \$1;
#P window linecount 1;
#P comment 272 205 52 9109513 Threshold;
#P number 230 203 35 9 0 0 0 139 0 0 0 221 221 221 222 222 222 0 0 0;
#P newex 87 202 105 9109513 jit.op @op > @val 125;
#P newex 87 179 145 9109513 jit.fastblur @range 3 @mode 4;
#P connect 13 0 16 0;
#P connect 16 0 17 0;
#P connect 17 0 15 0;
#P connect 15 0 12 0;
#P connect 1 0 12 0;
#P connect 14 0 15 1;
#P fasten 4 0 0 0 270 171 92 171;
#P fasten 10 0 0 0 111 171 92 171;
#P fasten 7 0 0 0 222 171 92 171;
#P fasten 6 0 0 0 164 171 92 171;
#P connect 15 1 0 0;
#P connect 0 0 1 0;
#P connect 11 0 10 0;
#P connect 9 0 6 0;
#P connect 2 0 1 1;
#P lcolor 1;
#P connect 8 0 7 0;
#P connect 5 0 4 0;
#P pop;
#P newobj 107 209 88 9109513 p noise-reduction;
#P window linecount 0;
#P newex 54 41 56 9109513 jit.rgb2luma;
#P newex 73 184 106 9109513 jit.op @op > @val 0.1;
#P newex 53 304 141 9109513 jit.glue @rows 1 @columns 2;
#P newex 53 337 138 9109513 jcom.autosize% @width 320;
#P newex 87 74 67 9109513 jcom.motion%;
#P inlet 54 19 15 0;
#P inlet 170 53 15 0;
#P outlet 291 281 15 0;
#P outlet 53 376 15 0;
#P connect 8 0 6 0;
#P connect 6 0 5 0;
#P connect 5 0 0 0;
#P connect 3 0 8 0;
#P connect 10 0 7 0;
#P fasten 13 0 14 0 253 134 81 134;
#P connect 14 0 10 0;
#P connect 9 0 11 0;
#P connect 7 0 11 0;
#P fasten 8 0 4 0 59 65 92 65;
#P connect 10 1 9 0;
#P connect 4 0 10 1;
#P connect 2 0 7 1;
#P connect 11 0 6 1;
#P connect 12 0 13 0;
#P connect 11 0 1 0;
#P pop;
#P hidden newobj 492 108 116 9109513 p motion;
#P comment 491 89 46 9109513 threshold;
#P user jit.fpsgui 84 88 60 9109513 0;
#P comment 509 138 74 9109513 motion image;
#P comment 354 138 74 9109513 cropped image;
#P hidden comment 85 62 33 9109513 mode;
#P comment 74 38 58 9109513 start/stop;
#N vpatcher 221 119 720 438;
#P window setfont "Sans Serif" 9.;
#P message 126 100 34 9109513 time 0;
#P outlet 21 238 15 0;
#P newex 275 96 19 9109513 t 1;
#P toggle 275 120 27 0;
#P newex 275 73 41 9109513 sel read;
#P newex 275 41 77 9109513 r from-movie;
#P user jit.fpsgui 55 235 60 9109513 0;
#P objectname jit.fpsgui[1];
#N vpatcher 478 207 1020 554;
#P window setfont "Sans Serif" 9.;
#P window linecount 0;
#P newex 41 100 20 9109513 t b;
#P window linecount 1;
#P message 86 176 38 9109513 getfps;
#P message 417 176 73 9109513 getframecount;
#P message 348 176 65 9109513 getlooppoints;
#P message 304 176 40 9109513 getloop;
#P message 241 176 59 9109513 getduration;
#P message 173 176 65 9109513 gettimescale;
#P message 128 176 42 9109513 gettime;
#P message 41 176 42 9109513 getrate;
#P inlet 41 40 15 0;
#P newex 41 70 57 9109513 route read;
#P newex 41 265 59 9109513 s to-movie;
#P connect 1 0 11 0;
#P connect 11 0 3 0;
#P connect 8 0 0 0;
#P connect 10 0 0 0;
#P connect 9 0 0 0;
#P connect 7 0 0 0;
#P connect 6 0 0 0;
#P connect 5 0 0 0;
#P connect 4 0 0 0;
#P connect 3 0 0 0;
#P connect 11 0 10 0;
#P connect 11 0 4 0;
#P connect 11 0 5 0;
#P connect 11 0 6 0;
#P connect 11 0 7 0;
#P connect 11 0 8 0;
#P connect 11 0 9 0;
#P pop;
#P newobj 289 205 59 9109513 p get-stuff;
#P newex 67 205 51 9109513 t gettime;
#P newex 129 205 70 9109513 speedlim 500;
#N vpatcher 438 107 1274 633;
#P window setfont "Sans Serif" 9.;
#P window linecount 0;
#P newex 434 108 19 9109513 t 1;
#P newex 432 73 28 9109513 sel 0;
#P window linecount 1;
#P newex 607 204 44 9109513 pack 0 0;
#P newex 607 180 49 9109513 * 1024;
#P number 607 158 35 9 0 0 0 139 0 0 0 221 221 221 222 222 222 0 0 0;
#P message 607 229 96 9109513 framedump 0 \$1 \$2;
#P inlet 53 32 24 0;
#P newex 177 310 27 9109513 t l b;
#P message 255 348 107 9109513 /motiongram%/clear;
#P newex 255 372 161 9109513 jcom.send jcom.remote.module.to;
#P objectname xraymean[2];
#P window linecount 0;
#P newex 180 252 32 9109513 sel 1;
#P newex 180 231 42 9109513 > 2048;
#P window linecount 2;
#P comment 315 170 64 9109513 Total frames in movie;
#P comment 315 218 74 9109513 Find ncessary frame spacing;
#P window linecount 1;
#P newex 133 199 21 9109513 t 0;
#P newex 133 102 72 9109513 r from-movie;
#P newex 68 281 80 9109513 s clear-window;
#P objectname xraymean[1];
#P toggle 53 171 29 0;
#P newex 53 216 41 9109513 sel 0 1;
#P button 68 241 15 0;
#P newex 256 245 43 9109513 route 0;
#P newex 177 281 110 9109513 pack framedump 0 1 1;
#P number 256 223 35 9 0 0 0 139 0 0 0 221 221 221 222 222 222 0 0 0;
#P newex 256 199 43 9109513 / 1024;
#P newex 394 174 82 9109513 t getframecount;
#P number 243 176 68 9 0 0 0 139 0 0 0 221 221 221 222 222 222 0 0 0;
#P number 180 199 46 9 0 0 0 139 0 0 0 221 221 221 222 222 222 0 0 0;
#P newex 133 176 57 9109513 route done;
#P newex 133 135 164 9109513 route framedump framecount read;
#P message 53 315 86 9109513 cancelframedump;
#P newex 177 348 59 9109513 s to-movie;
#P comment 14 180 34 9109513 Dump;
#P comment 162 219 79 9109513 Dumped frames;
#P connect 32 0 15 0;
#P fasten 18 0 15 0 138 221 115 221 115 164 58 164;
#P connect 15 0 14 0;
#P connect 14 0 3 0;
#P connect 14 1 13 0;
#P connect 13 0 16 0;
#P connect 17 0 4 0;
#P connect 4 0 5 0;
#P connect 22 0 18 0;
#P connect 5 0 18 0;
#P fasten 13 0 11 0 73 275 182 275;
#P connect 27 0 25 0;
#P connect 11 0 25 0;
#P connect 25 0 2 0;
#P fasten 8 0 2 0 399 333 182 333;
#P fasten 3 0 2 0 58 340 182 340;
#P connect 5 1 6 0;
#P connect 6 0 21 0;
#P connect 21 0 22 0;
#P connect 7 0 21 1;
#P fasten 4 1 7 0 189 169 248 169;
#P connect 7 0 11 2;
#P connect 25 1 24 0;
#P connect 24 0 23 0;
#P connect 7 0 9 0;
#P connect 9 0 10 0;
#P connect 10 0 12 0;
#P connect 12 1 11 3;
#P fasten 4 2 8 0 240 159 399 159;
#P connect 26 0 31 0;
#P connect 31 0 32 0;
#P connect 31 1 28 0;
#P connect 28 0 29 0;
#P connect 29 0 30 0;
#P connect 30 0 27 0;
#P fasten 28 0 30 1 612 176 646 176;
#P pop;
#P newobj 275 172 47 9109513 p mode1;
#P newex 158 75 41 9109513 sel 1 0;
#P newex 214 205 72 9109513 s from-movie;
#P newex 77 145 59 9109513 r to-movie;
#P objectname receive;
#P message 188 100 27 9109513 stop;
#P message 158 100 31 9109513 start;
#P flonum 84 100 35 9 0.5 0 1 139 0 0 0 221 221 221 222 222 222 0 0 0;
#P objectname flonum;
#P newex 50 120 44 9109513 metro 2;
#P newex 56 177 149 9109513 jit.qt.movie @autostart 0 @loop 0;
#B color 5;
#P objectname jit.qt.movie;
#P inlet 396 58 15 0;
#P inlet 12 42 15 0;
#P inlet 50 45 15 0;
#P connect 3 0 20 0;
#P connect 0 0 4 0;
#P connect 3 0 15 0;
#P connect 21 0 3 0;
#P connect 1 0 3 0;
#P fasten 4 0 3 0 55 157 61 157;
#P fasten 6 0 3 0 163 176 61 176;
#P fasten 7 0 3 0 193 170 61 170;
#P connect 8 0 3 0;
#P connect 12 0 3 0;
#P connect 3 0 13 0;
#P connect 5 0 4 1;
#P connect 10 0 21 0;
#P connect 13 0 12 0;
#P connect 0 0 10 0;
#P connect 10 0 6 0;
#P connect 10 1 7 0;
#P fasten 3 1 9 0 200 200 219 200;
#P connect 17 0 19 0;
#P connect 19 0 18 0;
#P connect 2 0 11 0;
#P connect 18 0 11 0;
#P fasten 3 1 14 0 200 199 294 199;
#P pop;
#P hidden newobj 2 82 74 9109513 p player-stuff;
#P hidden newex 2 109 64 9109513 jcom.crop%;
#P comment 10 138 226 9109513 click and drag in the window below to crop.;
#P user jit.pwindow 1 153 310 235 0 1 0 0 1 0;
#P user jit.pwindow 331 153 322 3 0 1 0 0 1 0;
#P user jit.pwindow 1 446 1026 242 0 1 0 0 1 0;
#P comment 674 219 123 9109513 Quantity of Motion (QoM);
#P flonum 799 106 29 9 0 0 8224 139 0 0 0 221 221 221 222 222 222 0 0 0;
#P flonum 799 84 31 9 0 0 8224 139 0 0 0 221 221 221 222 222 222 0 0 0;
#P flonum 799 61 29 9 0 0 8224 139 0 0 0 221 221 221 222 222 222 0 0 0;
#P user multiSlider 678 235 290 97 0. 0.2 1 3961 15 0 0 2 0 0 0;
#M frgb 0 0 0;
#M brgb 255 255 255;
#M rgb2 127 127 127;
#M rgb3 0 0 0;
#M rgb4 37 52 91;
#M rgb5 74 105 182;
#M rgb6 112 158 18;
#M rgb7 149 211 110;
#M rgb8 187 9 201;
#M rgb9 224 62 37;
#M rgb10 7 114 128;
#P hidden user umenu 1 59 82 9109543 1 64 75 1;
#X add Automatic;
#X add 1 frame;
#X add 2 frames;
#X add 3 frames;
#X add 4 frames;
#X add 5 frames;
#X add 6 frames;
#X add 7 frames;
#X add 8 frames;
#X add 9 frames;
#P message 2 38 28 9109513 read;
#P toggle 58 38 15 0;
#P objectname toggle;
#P comment 32 38 23 9109513 file;
#P window linecount 9;
#P user com 207 22 279 9109513 140;
#K set 0 17010 30059 29537 28278 26995 28265 28263 14880 3377 11808 -32400 28261 8293 28192 30313 25701 28518 26988 8301 25956 8226 29285 24932 8717 12846 8275 29793 29300 8289 30323 28777 27756 26990 26381 13102 8267 27753 27499 8303 26400 29810 25963 27424 26912 24950 29552 26988 27753 28263 29558 26990 25717 25972 8294 28530 8332 8299 27753 28784 25888 26912 30313 25701 28514 26988 25701 29709 13358 8266 30067 29797 29216 29797 29299 27493 27766 25970 25705 25966 8294 28530 8332 8294 -29664 25972 8308 31076 25964 26983 8290 26988 25701 11789 11565 11533 13614 8275 29793 29300 8303;
#K set 100 28784 29793 27424 24950 8292 24948 24845 13870 8275 29793 29300 8310 26980 25967 24950 29552 26988 27753 28263 8304 -29664 28281 29812 3383 11808 21355 29289 30240 25697 29793 8308 26988 8294 26988 8308 26988 8307 27765 29812 11776;
#K end;
#P window linecount 1;
#P comment 844 42 23 9109513 min;
#P user panel 673 34 289 97;
#X brgb 191 191 191;
#X frgb 0 0 0;
#X border 1;
#X rounded 0;
#X shadow 0;
#X done;
#P comment 786 146 100 9109513 start opptak;
#P hidden connect 6 0 18 0;
#P hidden connect 18 0 17 0;
#P hidden connect 17 0 15 0;
#P hidden connect 28 1 13 0;
#P hidden connect 5 0 18 1;
#P hidden fasten 15 1 17 1 305 392 316 392 316 106 61 106;
#P hidden connect 7 0 18 2;
#P hidden connect 18 0 23 0;
#P hidden connect 67 0 68 0;
#P hidden connect 5 0 54 0;
#P hidden connect 68 0 28 0;
#P hidden connect 62 0 28 0;
#P hidden connect 54 0 36 0;
#P hidden connect 36 0 35 0;
#P hidden connect 25 1 28 1;
#P hidden connect 25 0 14 0;
#P hidden connect 17 1 25 0;
#P hidden connect 27 0 42 0;
#P hidden connect 42 0 30 0;
#P hidden connect 30 0 25 1;
#P hidden connect 42 1 40 0;
#P hidden connect 40 0 25 2;
#P hidden connect 9 0 8 0;
#P hidden connect 56 0 55 0;
#P hidden connect 58 0 57 0;
#P hidden connect 26 0 9 0;
#P hidden connect 26 1 10 0;
#P hidden connect 26 2 11 0;
#P hidden connect 61 0 57 1;
#P hidden connect 57 0 60 0;
#P hidden connect 31 0 33 0;
#P hidden connect 46 0 48 0;
#P hidden connect 50 0 52 0;
#P hidden connect 31 1 32 0;
#P hidden connect 46 1 47 0;
#P hidden connect 50 1 51 0;
#P hidden connect 31 2 34 0;
#P hidden connect 46 2 49 0;
#P hidden connect 50 2 53 0;
#P hidden connect 26 0 31 0;
#P hidden connect 26 1 46 0;
#P hidden connect 26 2 50 0;
#P hidden connect 25 1 26 0;
#P hidden connect 26 0 61 0;
#P hidden connect 29 0 66 0;
#P hidden connect 26 0 29 0;
#P hidden connect 26 1 29 1;
#P hidden connect 26 1 61 1;
#P hidden connect 26 2 29 2;
#P hidden connect 69 0 29 3;
#P hidden connect 26 2 61 2;
#P hidden connect 71 0 69 0;
#P pop;
